solid CATIA STL
  facet normal  1.000000e+000  0.000000e+000  0.000000e+000
    outer loop
      vertex  1.500000e+001  2.715000e+001 -3.200000e+000
      vertex  1.500000e+001  2.715000e+001  8.500000e+000
      vertex  1.500000e+001  2.250000e+001  0.000000e+000
    endloop
  endfacet
  facet normal  1.000000e+000  0.000000e+000  0.000000e+000
    outer loop
      vertex  1.500000e+001  3.102000e+001  2.100000e+001
      vertex  1.500000e+001  2.722736e+001  2.047118e+001
      vertex  1.500000e+001  2.752000e+001  2.050000e+001
    endloop
  endfacet
  facet normal  1.000000e+000  -0.000000e+000  0.000000e+000
    outer loop
      vertex  1.500000e+001  3.102000e+001  2.100000e+001
      vertex  1.500000e+001  2.752000e+001  2.050000e+001
      vertex  1.500000e+001  2.781264e+001  2.047118e+001
    endloop
  endfacet
  facet normal  1.000000e+000  -0.000000e+000  0.000000e+000
    outer loop
      vertex  1.500000e+001  3.102000e+001  2.100000e+001
      vertex  1.500000e+001  2.781264e+001  2.047118e+001
      vertex  1.500000e+001  2.809402e+001  2.038582e+001
    endloop
  endfacet
  facet normal  1.000000e+000  -0.000000e+000  0.000000e+000
    outer loop
      vertex  1.500000e+001  3.102000e+001  2.100000e+001
      vertex  1.500000e+001  2.809402e+001  2.038582e+001
      vertex  1.500000e+001  3.102000e+001  1.900000e+001
    endloop
  endfacet
  facet normal  1.000000e+000  0.000000e+000  -0.000000e+000
    outer loop
      vertex  1.500000e+001  2.715000e+001  8.500000e+000
      vertex  1.500000e+001  3.135000e+001  8.500000e+000
      vertex  1.500000e+001  3.485000e+001  1.200000e+001
    endloop
  endfacet
  facet normal  1.000000e+000  0.000000e+000  0.000000e+000
    outer loop
      vertex  1.500000e+001  2.715000e+001  8.500000e+000
      vertex  1.500000e+001  3.485000e+001  1.200000e+001
      vertex  1.500000e+001  2.602000e+001  1.200000e+001
    endloop
  endfacet
  facet normal  1.000000e+000  0.000000e+000  0.000000e+000
    outer loop
      vertex  1.500000e+001  2.715000e+001  8.500000e+000
      vertex  1.500000e+001  2.602000e+001  1.200000e+001
      vertex  1.500000e+001  2.250000e+001  0.000000e+000
    endloop
  endfacet
  facet normal  1.000000e+000  0.000000e+000  0.000000e+000
    outer loop
      vertex  1.500000e+001 -2.250000e+001  0.000000e+000
      vertex  1.500000e+001 -2.250000e+001  2.500000e+001
      vertex  1.500000e+001 -2.602000e+001  1.900000e+001
    endloop
  endfacet
  facet normal  1.000000e+000  0.000000e+000  0.000000e+000
    outer loop
      vertex  1.500000e+001 -2.250000e+001  0.000000e+000
      vertex  1.500000e+001 -2.602000e+001  1.900000e+001
      vertex  1.500000e+001 -2.602000e+001  1.200000e+001
    endloop
  endfacet
  facet normal  1.000000e+000  0.000000e+000  0.000000e+000
    outer loop
      vertex  1.500000e+001 -2.250000e+001  0.000000e+000
      vertex  1.500000e+001 -2.602000e+001  1.200000e+001
      vertex  1.500000e+001 -2.715000e+001  8.500000e+000
    endloop
  endfacet
  facet normal  1.000000e+000  0.000000e+000  0.000000e+000
    outer loop
      vertex  1.500000e+001 -2.250000e+001  0.000000e+000
      vertex  1.500000e+001 -2.715000e+001  8.500000e+000
      vertex  1.500000e+001 -2.715000e+001 -3.200000e+000
    endloop
  endfacet
  facet normal  1.000000e+000  0.000000e+000  0.000000e+000
    outer loop
      vertex  1.500000e+001 -2.250000e+001  0.000000e+000
      vertex  1.500000e+001 -2.715000e+001 -3.200000e+000
      vertex  1.500000e+001  0.000000e+000  0.000000e+000
    endloop
  endfacet
  facet normal  9.999999e-001  0.000000e+000  -0.000000e+000
    outer loop
      vertex  1.500000e+001 -3.102000e+001  1.900000e+001
      vertex  1.500000e+001 -2.902000e+001  1.900000e+001
      vertex  1.500000e+001 -2.899118e+001  1.929263e+001
    endloop
  endfacet
  facet normal  1.000000e+000  0.000000e+000  -0.000000e+000
    outer loop
      vertex  1.500000e+001 -3.102000e+001  1.900000e+001
      vertex  1.500000e+001 -2.899118e+001  1.929263e+001
      vertex  1.500000e+001 -2.890582e+001  1.957402e+001
    endloop
  endfacet
  facet normal  1.000000e+000  0.000000e+000  -0.000000e+000
    outer loop
      vertex  1.500000e+001 -3.102000e+001  1.900000e+001
      vertex  1.500000e+001 -2.890582e+001  1.957402e+001
      vertex  1.500000e+001 -2.876720e+001  1.983335e+001
    endloop
  endfacet
  facet normal  1.000000e+000  0.000000e+000  -0.000000e+000
    outer loop
      vertex  1.500000e+001 -3.102000e+001  1.900000e+001
      vertex  1.500000e+001 -2.876720e+001  1.983335e+001
      vertex  1.500000e+001 -2.858066e+001  2.006066e+001
    endloop
  endfacet
  facet normal  1.000000e+000  0.000000e+000  -0.000000e+000
    outer loop
      vertex  1.500000e+001 -3.102000e+001  1.900000e+001
      vertex  1.500000e+001 -2.858066e+001  2.006066e+001
      vertex  1.500000e+001 -2.835336e+001  2.024720e+001
    endloop
  endfacet
  facet normal  9.999999e-001  0.000000e+000  -0.000000e+000
    outer loop
      vertex  1.500000e+001 -3.102000e+001  1.900000e+001
      vertex  1.500000e+001 -2.835336e+001  2.024720e+001
      vertex  1.500000e+001 -2.809402e+001  2.038582e+001
    endloop
  endfacet
  facet normal  1.000000e+000  0.000000e+000  0.000000e+000
    outer loop
      vertex  1.500000e+001 -3.102000e+001  2.100000e+001
      vertex  1.500000e+001 -3.102000e+001  1.900000e+001
      vertex  1.500000e+001 -2.809402e+001  2.038582e+001
    endloop
  endfacet
  facet normal  1.000000e+000  0.000000e+000  -0.000000e+000
    outer loop
      vertex  1.500000e+001 -3.102000e+001  2.100000e+001
      vertex  1.500000e+001 -2.809402e+001  2.038582e+001
      vertex  1.500000e+001 -2.781264e+001  2.047118e+001
    endloop
  endfacet
  facet normal  1.000000e+000  0.000000e+000  -0.000000e+000
    outer loop
      vertex  1.500000e+001 -3.102000e+001  2.100000e+001
      vertex  1.500000e+001 -2.781264e+001  2.047118e+001
      vertex  1.500000e+001 -2.752000e+001  2.050000e+001
    endloop
  endfacet
  facet normal  1.000000e+000  -0.000000e+000  -0.000000e+000
    outer loop
      vertex  1.500000e+001 -3.102000e+001  2.100000e+001
      vertex  1.500000e+001 -2.752000e+001  2.050000e+001
      vertex  1.500000e+001 -2.722736e+001  2.047118e+001
    endloop
  endfacet
  facet normal  1.000000e+000  0.000000e+000  0.000000e+000
    outer loop
      vertex  1.500000e+001  2.250000e+001  2.500000e+001
      vertex  1.500000e+001  2.250000e+001  0.000000e+000
      vertex  1.500000e+001  2.602000e+001  1.200000e+001
    endloop
  endfacet
  facet normal  1.000000e+000  0.000000e+000  -0.000000e+000
    outer loop
      vertex  1.500000e+001  2.250000e+001  2.500000e+001
      vertex  1.500000e+001  2.602000e+001  1.200000e+001
      vertex  1.500000e+001  2.602000e+001  1.900000e+001
    endloop
  endfacet
  facet normal  1.000000e+000  0.000000e+000  -0.000000e+000
    outer loop
      vertex  1.500000e+001  2.250000e+001  2.500000e+001
      vertex  1.500000e+001  2.602000e+001  1.900000e+001
      vertex  1.500000e+001  2.604882e+001  1.929263e+001
    endloop
  endfacet
  facet normal  1.000000e+000  0.000000e+000  -0.000000e+000
    outer loop
      vertex  1.500000e+001  2.250000e+001  2.500000e+001
      vertex  1.500000e+001  2.604882e+001  1.929263e+001
      vertex  1.500000e+001  2.613418e+001  1.957402e+001
    endloop
  endfacet
  facet normal  1.000000e+000  0.000000e+000  -0.000000e+000
    outer loop
      vertex  1.500000e+001  2.250000e+001  2.500000e+001
      vertex  1.500000e+001  2.613418e+001  1.957402e+001
      vertex  1.500000e+001  2.627279e+001  1.983335e+001
    endloop
  endfacet
  facet normal  1.000000e+000  0.000000e+000  -0.000000e+000
    outer loop
      vertex  1.500000e+001  2.250000e+001  2.500000e+001
      vertex  1.500000e+001  2.627279e+001  1.983335e+001
      vertex  1.500000e+001  2.645934e+001  2.006066e+001
    endloop
  endfacet
  facet normal  1.000000e+000  0.000000e+000  -0.000000e+000
    outer loop
      vertex  1.500000e+001  2.250000e+001  2.500000e+001
      vertex  1.500000e+001  2.645934e+001  2.006066e+001
      vertex  1.500000e+001  2.668665e+001  2.024720e+001
    endloop
  endfacet
  facet normal  1.000000e+000  0.000000e+000  -0.000000e+000
    outer loop
      vertex  1.500000e+001  2.250000e+001  2.500000e+001
      vertex  1.500000e+001  2.668665e+001  2.024720e+001
      vertex  1.500000e+001  2.694597e+001  2.038582e+001
    endloop
  endfacet
  facet normal  1.000000e+000  0.000000e+000  -0.000000e+000
    outer loop
      vertex  1.500000e+001  2.250000e+001  2.500000e+001
      vertex  1.500000e+001  2.694597e+001  2.038582e+001
      vertex  1.500000e+001  2.722736e+001  2.047118e+001
    endloop
  endfacet
  facet normal  1.000000e+000  0.000000e+000  -0.000000e+000
    outer loop
      vertex  1.500000e+001  2.250000e+001  2.500000e+001
      vertex  1.500000e+001  2.722736e+001  2.047118e+001
      vertex  1.500000e+001  3.102000e+001  2.100000e+001
    endloop
  endfacet
  facet normal  1.000000e+000  0.000000e+000  0.000000e+000
    outer loop
      vertex  1.500000e+001  2.250000e+001  2.500000e+001
      vertex  1.500000e+001  3.102000e+001  2.100000e+001
      vertex  1.500000e+001  2.702000e+001  2.500000e+001
    endloop
  endfacet
  facet normal  1.000000e+000  -0.000000e+000  0.000000e+000
    outer loop
      vertex  1.500000e+001 -2.250000e+001  2.500000e+001
      vertex  1.500000e+001 -2.702000e+001  2.500000e+001
      vertex  1.500000e+001 -3.102000e+001  2.100000e+001
    endloop
  endfacet
  facet normal  1.000000e+000  -0.000000e+000  0.000000e+000
    outer loop
      vertex  1.500000e+001 -2.250000e+001  2.500000e+001
      vertex  1.500000e+001 -3.102000e+001  2.100000e+001
      vertex  1.500000e+001 -2.722736e+001  2.047118e+001
    endloop
  endfacet
  facet normal  1.000000e+000  -0.000000e+000  0.000000e+000
    outer loop
      vertex  1.500000e+001 -2.250000e+001  2.500000e+001
      vertex  1.500000e+001 -2.722736e+001  2.047118e+001
      vertex  1.500000e+001 -2.694597e+001  2.038582e+001
    endloop
  endfacet
  facet normal  9.999999e-001  -0.000000e+000  0.000000e+000
    outer loop
      vertex  1.500000e+001 -2.250000e+001  2.500000e+001
      vertex  1.500000e+001 -2.694597e+001  2.038582e+001
      vertex  1.500000e+001 -2.668665e+001  2.024720e+001
    endloop
  endfacet
  facet normal  1.000000e+000  -0.000000e+000  0.000000e+000
    outer loop
      vertex  1.500000e+001 -2.250000e+001  2.500000e+001
      vertex  1.500000e+001 -2.668665e+001  2.024720e+001
      vertex  1.500000e+001 -2.645934e+001  2.006066e+001
    endloop
  endfacet
  facet normal  1.000000e+000  -0.000000e+000  0.000000e+000
    outer loop
      vertex  1.500000e+001 -2.250000e+001  2.500000e+001
      vertex  1.500000e+001 -2.645934e+001  2.006066e+001
      vertex  1.500000e+001 -2.627279e+001  1.983335e+001
    endloop
  endfacet
  facet normal  1.000000e+000  -0.000000e+000  0.000000e+000
    outer loop
      vertex  1.500000e+001 -2.250000e+001  2.500000e+001
      vertex  1.500000e+001 -2.627279e+001  1.983335e+001
      vertex  1.500000e+001 -2.613418e+001  1.957402e+001
    endloop
  endfacet
  facet normal  1.000000e+000  -0.000000e+000  0.000000e+000
    outer loop
      vertex  1.500000e+001 -2.250000e+001  2.500000e+001
      vertex  1.500000e+001 -2.613418e+001  1.957402e+001
      vertex  1.500000e+001 -2.604882e+001  1.929263e+001
    endloop
  endfacet
  facet normal  1.000000e+000  -0.000000e+000  0.000000e+000
    outer loop
      vertex  1.500000e+001 -2.250000e+001  2.500000e+001
      vertex  1.500000e+001 -2.604882e+001  1.929263e+001
      vertex  1.500000e+001 -2.602000e+001  1.900000e+001
    endloop
  endfacet
  facet normal  9.999999e-001  0.000000e+000  0.000000e+000
    outer loop
      vertex  1.500000e+001  3.102000e+001  1.900000e+001
      vertex  1.500000e+001  2.809402e+001  2.038582e+001
      vertex  1.500000e+001  2.835336e+001  2.024720e+001
    endloop
  endfacet
  facet normal  1.000000e+000  0.000000e+000  0.000000e+000
    outer loop
      vertex  1.500000e+001  3.102000e+001  1.900000e+001
      vertex  1.500000e+001  2.835336e+001  2.024720e+001
      vertex  1.500000e+001  2.858066e+001  2.006066e+001
    endloop
  endfacet
  facet normal  1.000000e+000  0.000000e+000  0.000000e+000
    outer loop
      vertex  1.500000e+001  3.102000e+001  1.900000e+001
      vertex  1.500000e+001  2.858066e+001  2.006066e+001
      vertex  1.500000e+001  2.876720e+001  1.983335e+001
    endloop
  endfacet
  facet normal  1.000000e+000  0.000000e+000  0.000000e+000
    outer loop
      vertex  1.500000e+001  3.102000e+001  1.900000e+001
      vertex  1.500000e+001  2.876720e+001  1.983335e+001
      vertex  1.500000e+001  2.890582e+001  1.957402e+001
    endloop
  endfacet
  facet normal  1.000000e+000  0.000000e+000  0.000000e+000
    outer loop
      vertex  1.500000e+001  3.102000e+001  1.900000e+001
      vertex  1.500000e+001  2.890582e+001  1.957402e+001
      vertex  1.500000e+001  2.899118e+001  1.929263e+001
    endloop
  endfacet
  facet normal  9.999999e-001  0.000000e+000  0.000000e+000
    outer loop
      vertex  1.500000e+001  3.102000e+001  1.900000e+001
      vertex  1.500000e+001  2.899118e+001  1.929263e+001
      vertex  1.500000e+001  2.902000e+001  1.900000e+001
    endloop
  endfacet
  facet normal  1.000000e+000  0.000000e+000  0.000000e+000
    outer loop
      vertex  1.500000e+001 -2.715000e+001  8.500000e+000
      vertex  1.500000e+001 -2.602000e+001  1.200000e+001
      vertex  1.500000e+001 -3.135000e+001  8.500000e+000
    endloop
  endfacet
  facet normal  1.000000e+000  0.000000e+000  -0.000000e+000
    outer loop
      vertex  1.500000e+001 -3.135000e+001  8.500000e+000
      vertex  1.500000e+001 -2.602000e+001  1.200000e+001
      vertex  1.500000e+001 -3.485000e+001  1.200000e+001
    endloop
  endfacet
  facet normal  1.000000e+000  0.000000e+000  0.000000e+000
    outer loop
      vertex  1.500000e+001 -3.135000e+001  8.500000e+000
      vertex  1.500000e+001 -3.485000e+001  1.200000e+001
      vertex  1.500000e+001 -3.135000e+001  3.000000e+000
    endloop
  endfacet
  facet normal  1.000000e+000  0.000000e+000  0.000000e+000
    outer loop
      vertex  1.500000e+001 -3.135000e+001  3.000000e+000
      vertex  1.500000e+001 -3.485000e+001  1.200000e+001
      vertex  1.500000e+001 -3.485000e+001  3.000000e+000
    endloop
  endfacet
  facet normal  1.000000e+000  0.000000e+000  0.000000e+000
    outer loop
      vertex  1.500000e+001  0.000000e+000  0.000000e+000
      vertex  1.500000e+001 -2.715000e+001 -3.200000e+000
      vertex  1.500000e+001  2.250000e+001  0.000000e+000
    endloop
  endfacet
  facet normal  1.000000e+000  0.000000e+000  0.000000e+000
    outer loop
      vertex  1.500000e+001  2.250000e+001  0.000000e+000
      vertex  1.500000e+001 -2.715000e+001 -3.200000e+000
      vertex  1.500000e+001  0.000000e+000 -3.200000e+000
    endloop
  endfacet
  facet normal  1.000000e+000  0.000000e+000  0.000000e+000
    outer loop
      vertex  1.500000e+001  2.250000e+001  0.000000e+000
      vertex  1.500000e+001  0.000000e+000 -3.200000e+000
      vertex  1.500000e+001  2.715000e+001 -3.200000e+000
    endloop
  endfacet
  facet normal  1.000000e+000  0.000000e+000  0.000000e+000
    outer loop
      vertex  1.500000e+001  3.135000e+001  3.000000e+000
      vertex  1.500000e+001  3.485000e+001  3.000000e+000
      vertex  1.500000e+001  3.135000e+001  8.500000e+000
    endloop
  endfacet
  facet normal  1.000000e+000  -0.000000e+000  0.000000e+000
    outer loop
      vertex  1.500000e+001  3.135000e+001  8.500000e+000
      vertex  1.500000e+001  3.485000e+001  3.000000e+000
      vertex  1.500000e+001  3.485000e+001  1.200000e+001
    endloop
  endfacet
  facet normal -1.000000e+000  0.000000e+000  -0.000000e+000
    outer loop
      vertex  0.000000e+000  2.250000e+001  0.000000e+000
      vertex  0.000000e+000  2.715000e+001  8.500000e+000
      vertex  0.000000e+000  2.715000e+001 -3.200000e+000
    endloop
  endfacet
  facet normal -1.000000e+000  0.000000e+000  0.000000e+000
    outer loop
      vertex  0.000000e+000  3.102000e+001  2.100000e+001
      vertex  0.000000e+000  3.102000e+001  1.900000e+001
      vertex  0.000000e+000  2.809402e+001  2.038582e+001
    endloop
  endfacet
  facet normal -1.000000e+000  0.000000e+000  0.000000e+000
    outer loop
      vertex  0.000000e+000  3.102000e+001  2.100000e+001
      vertex  0.000000e+000  2.809402e+001  2.038582e+001
      vertex  0.000000e+000  2.781264e+001  2.047118e+001
    endloop
  endfacet
  facet normal -1.000000e+000  0.000000e+000  0.000000e+000
    outer loop
      vertex  0.000000e+000  3.102000e+001  2.100000e+001
      vertex  0.000000e+000  2.781264e+001  2.047118e+001
      vertex  0.000000e+000  2.752000e+001  2.050000e+001
    endloop
  endfacet
  facet normal -1.000000e+000  -0.000000e+000  0.000000e+000
    outer loop
      vertex  0.000000e+000  3.102000e+001  2.100000e+001
      vertex  0.000000e+000  2.752000e+001  2.050000e+001
      vertex  0.000000e+000  2.722736e+001  2.047118e+001
    endloop
  endfacet
  facet normal -1.000000e+000  0.000000e+000  0.000000e+000
    outer loop
      vertex  0.000000e+000  2.715000e+001  8.500000e+000
      vertex  0.000000e+000  2.250000e+001  0.000000e+000
      vertex  0.000000e+000  2.602000e+001  1.200000e+001
    endloop
  endfacet
  facet normal -1.000000e+000  0.000000e+000  0.000000e+000
    outer loop
      vertex  0.000000e+000  2.715000e+001  8.500000e+000
      vertex  0.000000e+000  2.602000e+001  1.200000e+001
      vertex  0.000000e+000  3.485000e+001  1.200000e+001
    endloop
  endfacet
  facet normal -9.999999e-001  0.000000e+000  0.000000e+000
    outer loop
      vertex  0.000000e+000  2.715000e+001  8.500000e+000
      vertex  0.000000e+000  3.485000e+001  1.200000e+001
      vertex  0.000000e+000  3.135000e+001  8.500000e+000
    endloop
  endfacet
  facet normal -1.000000e+000  -0.000000e+000  0.000000e+000
    outer loop
      vertex  0.000000e+000 -2.250000e+001  0.000000e+000
      vertex  0.000000e+000  0.000000e+000  0.000000e+000
      vertex  0.000000e+000 -2.715000e+001 -3.200000e+000
    endloop
  endfacet
  facet normal -1.000000e+000  0.000000e+000  0.000000e+000
    outer loop
      vertex  0.000000e+000 -2.250000e+001  0.000000e+000
      vertex  0.000000e+000 -2.715000e+001 -3.200000e+000
      vertex  0.000000e+000 -2.715000e+001  8.500000e+000
    endloop
  endfacet
  facet normal -1.000000e+000  0.000000e+000  0.000000e+000
    outer loop
      vertex  0.000000e+000 -2.250000e+001  0.000000e+000
      vertex  0.000000e+000 -2.715000e+001  8.500000e+000
      vertex  0.000000e+000 -2.602000e+001  1.200000e+001
    endloop
  endfacet
  facet normal -1.000000e+000  0.000000e+000  0.000000e+000
    outer loop
      vertex  0.000000e+000 -2.250000e+001  0.000000e+000
      vertex  0.000000e+000 -2.602000e+001  1.200000e+001
      vertex  0.000000e+000 -2.602000e+001  1.900000e+001
    endloop
  endfacet
  facet normal -1.000000e+000  0.000000e+000  0.000000e+000
    outer loop
      vertex  0.000000e+000 -2.250000e+001  0.000000e+000
      vertex  0.000000e+000 -2.602000e+001  1.900000e+001
      vertex  0.000000e+000 -2.250000e+001  2.500000e+001
    endloop
  endfacet
  facet normal -9.999999e-001  0.000000e+000  0.000000e+000
    outer loop
      vertex  0.000000e+000 -3.102000e+001  1.900000e+001
      vertex  0.000000e+000 -2.809402e+001  2.038582e+001
      vertex  0.000000e+000 -2.835336e+001  2.024720e+001
    endloop
  endfacet
  facet normal -1.000000e+000  0.000000e+000  0.000000e+000
    outer loop
      vertex  0.000000e+000 -3.102000e+001  1.900000e+001
      vertex  0.000000e+000 -2.835336e+001  2.024720e+001
      vertex  0.000000e+000 -2.858066e+001  2.006066e+001
    endloop
  endfacet
  facet normal -1.000000e+000  0.000000e+000  0.000000e+000
    outer loop
      vertex  0.000000e+000 -3.102000e+001  1.900000e+001
      vertex  0.000000e+000 -2.858066e+001  2.006066e+001
      vertex  0.000000e+000 -2.876720e+001  1.983335e+001
    endloop
  endfacet
  facet normal -1.000000e+000  0.000000e+000  0.000000e+000
    outer loop
      vertex  0.000000e+000 -3.102000e+001  1.900000e+001
      vertex  0.000000e+000 -2.876720e+001  1.983335e+001
      vertex  0.000000e+000 -2.890582e+001  1.957402e+001
    endloop
  endfacet
  facet normal -1.000000e+000  0.000000e+000  0.000000e+000
    outer loop
      vertex  0.000000e+000 -3.102000e+001  1.900000e+001
      vertex  0.000000e+000 -2.890582e+001  1.957402e+001
      vertex  0.000000e+000 -2.899118e+001  1.929263e+001
    endloop
  endfacet
  facet normal -9.999999e-001  0.000000e+000  0.000000e+000
    outer loop
      vertex  0.000000e+000 -3.102000e+001  1.900000e+001
      vertex  0.000000e+000 -2.899118e+001  1.929263e+001
      vertex  0.000000e+000 -2.902000e+001  1.900000e+001
    endloop
  endfacet
  facet normal -1.000000e+000  0.000000e+000  0.000000e+000
    outer loop
      vertex  0.000000e+000 -3.102000e+001  2.100000e+001
      vertex  0.000000e+000 -2.722736e+001  2.047118e+001
      vertex  0.000000e+000 -2.752000e+001  2.050000e+001
    endloop
  endfacet
  facet normal -1.000000e+000  -0.000000e+000  0.000000e+000
    outer loop
      vertex  0.000000e+000 -3.102000e+001  2.100000e+001
      vertex  0.000000e+000 -2.752000e+001  2.050000e+001
      vertex  0.000000e+000 -2.781264e+001  2.047118e+001
    endloop
  endfacet
  facet normal -1.000000e+000  -0.000000e+000  0.000000e+000
    outer loop
      vertex  0.000000e+000 -3.102000e+001  2.100000e+001
      vertex  0.000000e+000 -2.781264e+001  2.047118e+001
      vertex  0.000000e+000 -2.809402e+001  2.038582e+001
    endloop
  endfacet
  facet normal -1.000000e+000  -0.000000e+000  0.000000e+000
    outer loop
      vertex  0.000000e+000 -3.102000e+001  2.100000e+001
      vertex  0.000000e+000 -2.809402e+001  2.038582e+001
      vertex  0.000000e+000 -3.102000e+001  1.900000e+001
    endloop
  endfacet
  facet normal -1.000000e+000  -0.000000e+000  -0.000000e+000
    outer loop
      vertex  0.000000e+000  2.250000e+001  2.500000e+001
      vertex  0.000000e+000  2.702000e+001  2.500000e+001
      vertex  0.000000e+000  3.102000e+001  2.100000e+001
    endloop
  endfacet
  facet normal -1.000000e+000  -0.000000e+000  0.000000e+000
    outer loop
      vertex  0.000000e+000  2.250000e+001  2.500000e+001
      vertex  0.000000e+000  3.102000e+001  2.100000e+001
      vertex  0.000000e+000  2.722736e+001  2.047118e+001
    endloop
  endfacet
  facet normal -1.000000e+000  -0.000000e+000  0.000000e+000
    outer loop
      vertex  0.000000e+000  2.250000e+001  2.500000e+001
      vertex  0.000000e+000  2.722736e+001  2.047118e+001
      vertex  0.000000e+000  2.694597e+001  2.038582e+001
    endloop
  endfacet
  facet normal -9.999999e-001  -0.000000e+000  0.000000e+000
    outer loop
      vertex  0.000000e+000  2.250000e+001  2.500000e+001
      vertex  0.000000e+000  2.694597e+001  2.038582e+001
      vertex  0.000000e+000  2.668665e+001  2.024720e+001
    endloop
  endfacet
  facet normal -1.000000e+000  -0.000000e+000  0.000000e+000
    outer loop
      vertex  0.000000e+000  2.250000e+001  2.500000e+001
      vertex  0.000000e+000  2.668665e+001  2.024720e+001
      vertex  0.000000e+000  2.645934e+001  2.006066e+001
    endloop
  endfacet
  facet normal -1.000000e+000  -0.000000e+000  0.000000e+000
    outer loop
      vertex  0.000000e+000  2.250000e+001  2.500000e+001
      vertex  0.000000e+000  2.645934e+001  2.006066e+001
      vertex  0.000000e+000  2.627279e+001  1.983335e+001
    endloop
  endfacet
  facet normal -1.000000e+000  -0.000000e+000  0.000000e+000
    outer loop
      vertex  0.000000e+000  2.250000e+001  2.500000e+001
      vertex  0.000000e+000  2.627279e+001  1.983335e+001
      vertex  0.000000e+000  2.613418e+001  1.957402e+001
    endloop
  endfacet
  facet normal -1.000000e+000  -0.000000e+000  0.000000e+000
    outer loop
      vertex  0.000000e+000  2.250000e+001  2.500000e+001
      vertex  0.000000e+000  2.613418e+001  1.957402e+001
      vertex  0.000000e+000  2.604882e+001  1.929263e+001
    endloop
  endfacet
  facet normal -1.000000e+000  -0.000000e+000  0.000000e+000
    outer loop
      vertex  0.000000e+000  2.250000e+001  2.500000e+001
      vertex  0.000000e+000  2.604882e+001  1.929263e+001
      vertex  0.000000e+000  2.602000e+001  1.900000e+001
    endloop
  endfacet
  facet normal -1.000000e+000  -0.000000e+000  -0.000000e+000
    outer loop
      vertex  0.000000e+000  2.250000e+001  2.500000e+001
      vertex  0.000000e+000  2.602000e+001  1.900000e+001
      vertex  0.000000e+000  2.602000e+001  1.200000e+001
    endloop
  endfacet
  facet normal -1.000000e+000  -0.000000e+000  0.000000e+000
    outer loop
      vertex  0.000000e+000  2.250000e+001  2.500000e+001
      vertex  0.000000e+000  2.602000e+001  1.200000e+001
      vertex  0.000000e+000  2.250000e+001  0.000000e+000
    endloop
  endfacet
  facet normal -1.000000e+000  0.000000e+000  0.000000e+000
    outer loop
      vertex  0.000000e+000 -2.250000e+001  2.500000e+001
      vertex  0.000000e+000 -2.602000e+001  1.900000e+001
      vertex  0.000000e+000 -2.604882e+001  1.929263e+001
    endloop
  endfacet
  facet normal -1.000000e+000  0.000000e+000  0.000000e+000
    outer loop
      vertex  0.000000e+000 -2.250000e+001  2.500000e+001
      vertex  0.000000e+000 -2.604882e+001  1.929263e+001
      vertex  0.000000e+000 -2.613418e+001  1.957402e+001
    endloop
  endfacet
  facet normal -1.000000e+000  0.000000e+000  0.000000e+000
    outer loop
      vertex  0.000000e+000 -2.250000e+001  2.500000e+001
      vertex  0.000000e+000 -2.613418e+001  1.957402e+001
      vertex  0.000000e+000 -2.627279e+001  1.983335e+001
    endloop
  endfacet
  facet normal -1.000000e+000  0.000000e+000  0.000000e+000
    outer loop
      vertex  0.000000e+000 -2.250000e+001  2.500000e+001
      vertex  0.000000e+000 -2.627279e+001  1.983335e+001
      vertex  0.000000e+000 -2.645934e+001  2.006066e+001
    endloop
  endfacet
  facet normal -1.000000e+000  0.000000e+000  0.000000e+000
    outer loop
      vertex  0.000000e+000 -2.250000e+001  2.500000e+001
      vertex  0.000000e+000 -2.645934e+001  2.006066e+001
      vertex  0.000000e+000 -2.668665e+001  2.024720e+001
    endloop
  endfacet
  facet normal -1.000000e+000  0.000000e+000  0.000000e+000
    outer loop
      vertex  0.000000e+000 -2.250000e+001  2.500000e+001
      vertex  0.000000e+000 -2.668665e+001  2.024720e+001
      vertex  0.000000e+000 -2.694597e+001  2.038582e+001
    endloop
  endfacet
  facet normal -1.000000e+000  0.000000e+000  0.000000e+000
    outer loop
      vertex  0.000000e+000 -2.250000e+001  2.500000e+001
      vertex  0.000000e+000 -2.694597e+001  2.038582e+001
      vertex  0.000000e+000 -2.722736e+001  2.047118e+001
    endloop
  endfacet
  facet normal -1.000000e+000  0.000000e+000  0.000000e+000
    outer loop
      vertex  0.000000e+000 -2.250000e+001  2.500000e+001
      vertex  0.000000e+000 -2.722736e+001  2.047118e+001
      vertex  0.000000e+000 -3.102000e+001  2.100000e+001
    endloop
  endfacet
  facet normal -1.000000e+000  0.000000e+000  0.000000e+000
    outer loop
      vertex  0.000000e+000 -2.250000e+001  2.500000e+001
      vertex  0.000000e+000 -3.102000e+001  2.100000e+001
      vertex  0.000000e+000 -2.702000e+001  2.500000e+001
    endloop
  endfacet
  facet normal -9.999999e-001  0.000000e+000  0.000000e+000
    outer loop
      vertex  0.000000e+000  3.102000e+001  1.900000e+001
      vertex  0.000000e+000  2.902000e+001  1.900000e+001
      vertex  0.000000e+000  2.899118e+001  1.929263e+001
    endloop
  endfacet
  facet normal -1.000000e+000  0.000000e+000  0.000000e+000
    outer loop
      vertex  0.000000e+000  3.102000e+001  1.900000e+001
      vertex  0.000000e+000  2.899118e+001  1.929263e+001
      vertex  0.000000e+000  2.890582e+001  1.957402e+001
    endloop
  endfacet
  facet normal -1.000000e+000  0.000000e+000  0.000000e+000
    outer loop
      vertex  0.000000e+000  3.102000e+001  1.900000e+001
      vertex  0.000000e+000  2.890582e+001  1.957402e+001
      vertex  0.000000e+000  2.876720e+001  1.983335e+001
    endloop
  endfacet
  facet normal -1.000000e+000  0.000000e+000  0.000000e+000
    outer loop
      vertex  0.000000e+000  3.102000e+001  1.900000e+001
      vertex  0.000000e+000  2.876720e+001  1.983335e+001
      vertex  0.000000e+000  2.858066e+001  2.006066e+001
    endloop
  endfacet
  facet normal -1.000000e+000  0.000000e+000  0.000000e+000
    outer loop
      vertex  0.000000e+000  3.102000e+001  1.900000e+001
      vertex  0.000000e+000  2.858066e+001  2.006066e+001
      vertex  0.000000e+000  2.835336e+001  2.024720e+001
    endloop
  endfacet
  facet normal -9.999999e-001  0.000000e+000  0.000000e+000
    outer loop
      vertex  0.000000e+000  3.102000e+001  1.900000e+001
      vertex  0.000000e+000  2.835336e+001  2.024720e+001
      vertex  0.000000e+000  2.809402e+001  2.038582e+001
    endloop
  endfacet
  facet normal -1.000000e+000  0.000000e+000  0.000000e+000
    outer loop
      vertex  0.000000e+000 -2.715000e+001  8.500000e+000
      vertex  0.000000e+000 -3.135000e+001  8.500000e+000
      vertex  0.000000e+000 -2.602000e+001  1.200000e+001
    endloop
  endfacet
  facet normal -1.000000e+000  -0.000000e+000  0.000000e+000
    outer loop
      vertex  0.000000e+000 -2.602000e+001  1.200000e+001
      vertex  0.000000e+000 -3.135000e+001  8.500000e+000
      vertex  0.000000e+000 -3.485000e+001  1.200000e+001
    endloop
  endfacet
  facet normal -1.000000e+000  0.000000e+000  0.000000e+000
    outer loop
      vertex  0.000000e+000 -3.135000e+001  8.500000e+000
      vertex  0.000000e+000 -3.135000e+001  3.000000e+000
      vertex  0.000000e+000 -3.485000e+001  1.200000e+001
    endloop
  endfacet
  facet normal -1.000000e+000  0.000000e+000  0.000000e+000
    outer loop
      vertex  0.000000e+000 -3.485000e+001  1.200000e+001
      vertex  0.000000e+000 -3.135000e+001  3.000000e+000
      vertex  0.000000e+000 -3.485000e+001  3.000000e+000
    endloop
  endfacet
  facet normal -1.000000e+000  0.000000e+000  0.000000e+000
    outer loop
      vertex  0.000000e+000  2.715000e+001 -3.200000e+000
      vertex  0.000000e+000  0.000000e+000 -3.200000e+000
      vertex  0.000000e+000  2.250000e+001  0.000000e+000
    endloop
  endfacet
  facet normal -1.000000e+000  0.000000e+000  0.000000e+000
    outer loop
      vertex  0.000000e+000  2.250000e+001  0.000000e+000
      vertex  0.000000e+000  0.000000e+000 -3.200000e+000
      vertex  0.000000e+000 -2.715000e+001 -3.200000e+000
    endloop
  endfacet
  facet normal -1.000000e+000  0.000000e+000  0.000000e+000
    outer loop
      vertex  0.000000e+000  2.250000e+001  0.000000e+000
      vertex  0.000000e+000 -2.715000e+001 -3.200000e+000
      vertex  0.000000e+000  0.000000e+000  0.000000e+000
    endloop
  endfacet
  facet normal -1.000000e+000  0.000000e+000  0.000000e+000
    outer loop
      vertex  0.000000e+000  3.135000e+001  3.000000e+000
      vertex  0.000000e+000  3.135000e+001  8.500000e+000
      vertex  0.000000e+000  3.485000e+001  3.000000e+000
    endloop
  endfacet
  facet normal -1.000000e+000  0.000000e+000  0.000000e+000
    outer loop
      vertex  0.000000e+000  3.485000e+001  3.000000e+000
      vertex  0.000000e+000  3.135000e+001  8.500000e+000
      vertex  0.000000e+000  3.485000e+001  1.200000e+001
    endloop
  endfacet
  facet normal  -0.000000e+000  0.000000e+000  1.000000e+000
    outer loop
      vertex  1.500000e+001  2.250000e+001  0.000000e+000
      vertex  0.000000e+000  2.250000e+001  0.000000e+000
      vertex  1.500000e+001  0.000000e+000  0.000000e+000
    endloop
  endfacet
  facet normal  0.000000e+000  0.000000e+000  1.000000e+000
    outer loop
      vertex  1.500000e+001  0.000000e+000  0.000000e+000
      vertex  0.000000e+000  2.250000e+001  0.000000e+000
      vertex  0.000000e+000  0.000000e+000  0.000000e+000
    endloop
  endfacet
  facet normal  0.000000e+000 -1.000000e+000  -0.000000e+000
    outer loop
      vertex  1.500000e+001  2.250000e+001  0.000000e+000
      vertex  1.500000e+001  2.250000e+001  2.500000e+001
      vertex  0.000000e+000  2.250000e+001  0.000000e+000
    endloop
  endfacet
  facet normal  0.000000e+000 -1.000000e+000  0.000000e+000
    outer loop
      vertex  0.000000e+000  2.250000e+001  0.000000e+000
      vertex  1.500000e+001  2.250000e+001  2.500000e+001
      vertex  0.000000e+000  2.250000e+001  2.500000e+001
    endloop
  endfacet
  facet normal  -0.000000e+000  0.000000e+000  1.000000e+000
    outer loop
      vertex  1.500000e+001  2.702000e+001  2.500000e+001
      vertex  0.000000e+000  2.702000e+001  2.500000e+001
      vertex  1.500000e+001  2.250000e+001  2.500000e+001
    endloop
  endfacet
  facet normal  0.000000e+000  0.000000e+000  1.000000e+000
    outer loop
      vertex  1.500000e+001  2.250000e+001  2.500000e+001
      vertex  0.000000e+000  2.702000e+001  2.500000e+001
      vertex  0.000000e+000  2.250000e+001  2.500000e+001
    endloop
  endfacet
  facet normal  0.000000e+000  7.071068e-001  7.071068e-001
    outer loop
      vertex  0.000000e+000  3.102000e+001  2.100000e+001
      vertex  0.000000e+000  2.702000e+001  2.500000e+001
      vertex  1.500000e+001  3.102000e+001  2.100000e+001
    endloop
  endfacet
  facet normal  0.000000e+000  7.071068e-001  7.071068e-001
    outer loop
      vertex  1.500000e+001  3.102000e+001  2.100000e+001
      vertex  0.000000e+000  2.702000e+001  2.500000e+001
      vertex  1.500000e+001  2.702000e+001  2.500000e+001
    endloop
  endfacet
  facet normal  0.000000e+000  1.000000e+000  0.000000e+000
    outer loop
      vertex  0.000000e+000  3.102000e+001  2.100000e+001
      vertex  1.500000e+001  3.102000e+001  2.100000e+001
      vertex  0.000000e+000  3.102000e+001  1.900000e+001
    endloop
  endfacet
  facet normal  0.000000e+000  1.000000e+000  0.000000e+000
    outer loop
      vertex  0.000000e+000  3.102000e+001  1.900000e+001
      vertex  1.500000e+001  3.102000e+001  2.100000e+001
      vertex  1.500000e+001  3.102000e+001  1.900000e+001
    endloop
  endfacet
  facet normal  0.000000e+000  0.000000e+000 -1.000000e+000
    outer loop
      vertex  1.500000e+001  2.902000e+001  1.900000e+001
      vertex  0.000000e+000  2.902000e+001  1.900000e+001
      vertex  1.500000e+001  3.102000e+001  1.900000e+001
    endloop
  endfacet
  facet normal  -0.000000e+000  0.000000e+000 -1.000000e+000
    outer loop
      vertex  1.500000e+001  3.102000e+001  1.900000e+001
      vertex  0.000000e+000  2.902000e+001  1.900000e+001
      vertex  0.000000e+000  3.102000e+001  1.900000e+001
    endloop
  endfacet
  facet normal  0.000000e+000  9.801622e-002 -9.951848e-001
    outer loop
      vertex  0.000000e+000  2.752000e+001  2.050000e+001
      vertex  1.500000e+001  2.722736e+001  2.047118e+001
      vertex  0.000000e+000  2.722736e+001  2.047118e+001
    endloop
  endfacet
  facet normal  0.000000e+000  2.902880e-001 -9.569393e-001
    outer loop
      vertex  0.000000e+000  2.722736e+001  2.047118e+001
      vertex  1.500000e+001  2.722736e+001  2.047118e+001
      vertex  1.500000e+001  2.694597e+001  2.038582e+001
    endloop
  endfacet
  facet normal  0.000000e+000  2.902880e-001 -9.569393e-001
    outer loop
      vertex  0.000000e+000  2.722736e+001  2.047118e+001
      vertex  1.500000e+001  2.694597e+001  2.038582e+001
      vertex  0.000000e+000  2.694597e+001  2.038582e+001
    endloop
  endfacet
  facet normal  0.000000e+000  4.713981e-001 -8.819206e-001
    outer loop
      vertex  0.000000e+000  2.694597e+001  2.038582e+001
      vertex  1.500000e+001  2.694597e+001  2.038582e+001
      vertex  1.500000e+001  2.668665e+001  2.024720e+001
    endloop
  endfacet
  facet normal  0.000000e+000  4.713981e-001 -8.819206e-001
    outer loop
      vertex  0.000000e+000  2.694597e+001  2.038582e+001
      vertex  1.500000e+001  2.668665e+001  2.024720e+001
      vertex  0.000000e+000  2.668665e+001  2.024720e+001
    endloop
  endfacet
  facet normal  0.000000e+000  6.343911e-001 -7.730123e-001
    outer loop
      vertex  0.000000e+000  2.668665e+001  2.024720e+001
      vertex  1.500000e+001  2.668665e+001  2.024720e+001
      vertex  1.500000e+001  2.645934e+001  2.006066e+001
    endloop
  endfacet
  facet normal  0.000000e+000  6.343911e-001 -7.730123e-001
    outer loop
      vertex  0.000000e+000  2.668665e+001  2.024720e+001
      vertex  1.500000e+001  2.645934e+001  2.006066e+001
      vertex  0.000000e+000  2.645934e+001  2.006066e+001
    endloop
  endfacet
  facet normal  0.000000e+000  7.730097e-001 -6.343943e-001
    outer loop
      vertex  0.000000e+000  2.645934e+001  2.006066e+001
      vertex  1.500000e+001  2.645934e+001  2.006066e+001
      vertex  1.500000e+001  2.627279e+001  1.983335e+001
    endloop
  endfacet
  facet normal  0.000000e+000  7.730097e-001 -6.343943e-001
    outer loop
      vertex  0.000000e+000  2.645934e+001  2.006066e+001
      vertex  1.500000e+001  2.627279e+001  1.983335e+001
      vertex  0.000000e+000  2.627279e+001  1.983335e+001
    endloop
  endfacet
  facet normal  0.000000e+000  8.819219e-001 -4.713953e-001
    outer loop
      vertex  0.000000e+000  2.627279e+001  1.983335e+001
      vertex  1.500000e+001  2.627279e+001  1.983335e+001
      vertex  1.500000e+001  2.613418e+001  1.957402e+001
    endloop
  endfacet
  facet normal  0.000000e+000  8.819219e-001 -4.713953e-001
    outer loop
      vertex  0.000000e+000  2.627279e+001  1.983335e+001
      vertex  1.500000e+001  2.613418e+001  1.957402e+001
      vertex  0.000000e+000  2.613418e+001  1.957402e+001
    endloop
  endfacet
  facet normal  0.000000e+000  9.569411e-001 -2.902821e-001
    outer loop
      vertex  0.000000e+000  2.613418e+001  1.957402e+001
      vertex  1.500000e+001  2.613418e+001  1.957402e+001
      vertex  1.500000e+001  2.604882e+001  1.929263e+001
    endloop
  endfacet
  facet normal  0.000000e+000  9.569411e-001 -2.902821e-001
    outer loop
      vertex  0.000000e+000  2.613418e+001  1.957402e+001
      vertex  1.500000e+001  2.604882e+001  1.929263e+001
      vertex  0.000000e+000  2.604882e+001  1.929263e+001
    endloop
  endfacet
  facet normal  0.000000e+000  9.951848e-001 -9.801686e-002
    outer loop
      vertex  0.000000e+000  2.604882e+001  1.929263e+001
      vertex  1.500000e+001  2.604882e+001  1.929263e+001
      vertex  1.500000e+001  2.602000e+001  1.900000e+001
    endloop
  endfacet
  facet normal  0.000000e+000  9.951848e-001 -9.801686e-002
    outer loop
      vertex  0.000000e+000  2.604882e+001  1.929263e+001
      vertex  1.500000e+001  2.602000e+001  1.900000e+001
      vertex  0.000000e+000  2.602000e+001  1.900000e+001
    endloop
  endfacet
  facet normal  0.000000e+000  9.801622e-002 -9.951848e-001
    outer loop
      vertex  1.500000e+001  2.722736e+001  2.047118e+001
      vertex  0.000000e+000  2.752000e+001  2.050000e+001
      vertex  1.500000e+001  2.752000e+001  2.050000e+001
    endloop
  endfacet
  facet normal  -0.000000e+000 -9.801686e-002 -9.951848e-001
    outer loop
      vertex  1.500000e+001  2.752000e+001  2.050000e+001
      vertex  0.000000e+000  2.752000e+001  2.050000e+001
      vertex  0.000000e+000  2.781264e+001  2.047118e+001
    endloop
  endfacet
  facet normal  0.000000e+000 -9.801686e-002 -9.951848e-001
    outer loop
      vertex  1.500000e+001  2.752000e+001  2.050000e+001
      vertex  0.000000e+000  2.781264e+001  2.047118e+001
      vertex  1.500000e+001  2.781264e+001  2.047118e+001
    endloop
  endfacet
  facet normal  -0.000000e+000 -2.902880e-001 -9.569393e-001
    outer loop
      vertex  1.500000e+001  2.781264e+001  2.047118e+001
      vertex  0.000000e+000  2.781264e+001  2.047118e+001
      vertex  0.000000e+000  2.809402e+001  2.038582e+001
    endloop
  endfacet
  facet normal  0.000000e+000 -2.902880e-001 -9.569393e-001
    outer loop
      vertex  1.500000e+001  2.781264e+001  2.047118e+001
      vertex  0.000000e+000  2.809402e+001  2.038582e+001
      vertex  1.500000e+001  2.809402e+001  2.038582e+001
    endloop
  endfacet
  facet normal  -0.000000e+000 -4.713953e-001 -8.819219e-001
    outer loop
      vertex  1.500000e+001  2.809402e+001  2.038582e+001
      vertex  0.000000e+000  2.809402e+001  2.038582e+001
      vertex  0.000000e+000  2.835336e+001  2.024720e+001
    endloop
  endfacet
  facet normal  0.000000e+000 -4.713953e-001 -8.819219e-001
    outer loop
      vertex  1.500000e+001  2.809402e+001  2.038582e+001
      vertex  0.000000e+000  2.835336e+001  2.024720e+001
      vertex  1.500000e+001  2.835336e+001  2.024720e+001
    endloop
  endfacet
  facet normal  -0.000000e+000 -6.343943e-001 -7.730097e-001
    outer loop
      vertex  1.500000e+001  2.835336e+001  2.024720e+001
      vertex  0.000000e+000  2.835336e+001  2.024720e+001
      vertex  0.000000e+000  2.858066e+001  2.006066e+001
    endloop
  endfacet
  facet normal  0.000000e+000 -6.343943e-001 -7.730097e-001
    outer loop
      vertex  1.500000e+001  2.835336e+001  2.024720e+001
      vertex  0.000000e+000  2.858066e+001  2.006066e+001
      vertex  1.500000e+001  2.858066e+001  2.006066e+001
    endloop
  endfacet
  facet normal  -0.000000e+000 -7.730097e-001 -6.343943e-001
    outer loop
      vertex  1.500000e+001  2.858066e+001  2.006066e+001
      vertex  0.000000e+000  2.858066e+001  2.006066e+001
      vertex  0.000000e+000  2.876720e+001  1.983335e+001
    endloop
  endfacet
  facet normal  0.000000e+000 -7.730097e-001 -6.343943e-001
    outer loop
      vertex  1.500000e+001  2.858066e+001  2.006066e+001
      vertex  0.000000e+000  2.876720e+001  1.983335e+001
      vertex  1.500000e+001  2.876720e+001  1.983335e+001
    endloop
  endfacet
  facet normal  -0.000000e+000 -8.819219e-001 -4.713953e-001
    outer loop
      vertex  1.500000e+001  2.876720e+001  1.983335e+001
      vertex  0.000000e+000  2.876720e+001  1.983335e+001
      vertex  0.000000e+000  2.890582e+001  1.957402e+001
    endloop
  endfacet
  facet normal  0.000000e+000 -8.819219e-001 -4.713953e-001
    outer loop
      vertex  1.500000e+001  2.876720e+001  1.983335e+001
      vertex  0.000000e+000  2.890582e+001  1.957402e+001
      vertex  1.500000e+001  2.890582e+001  1.957402e+001
    endloop
  endfacet
  facet normal  -0.000000e+000 -9.569393e-001 -2.902880e-001
    outer loop
      vertex  1.500000e+001  2.890582e+001  1.957402e+001
      vertex  0.000000e+000  2.890582e+001  1.957402e+001
      vertex  0.000000e+000  2.899118e+001  1.929263e+001
    endloop
  endfacet
  facet normal  0.000000e+000 -9.569393e-001 -2.902880e-001
    outer loop
      vertex  1.500000e+001  2.890582e+001  1.957402e+001
      vertex  0.000000e+000  2.899118e+001  1.929263e+001
      vertex  1.500000e+001  2.899118e+001  1.929263e+001
    endloop
  endfacet
  facet normal  -0.000000e+000 -9.951848e-001 -9.801686e-002
    outer loop
      vertex  1.500000e+001  2.899118e+001  1.929263e+001
      vertex  0.000000e+000  2.899118e+001  1.929263e+001
      vertex  0.000000e+000  2.902000e+001  1.900000e+001
    endloop
  endfacet
  facet normal  0.000000e+000 -9.951848e-001 -9.801686e-002
    outer loop
      vertex  1.500000e+001  2.899118e+001  1.929263e+001
      vertex  0.000000e+000  2.902000e+001  1.900000e+001
      vertex  1.500000e+001  2.902000e+001  1.900000e+001
    endloop
  endfacet
  facet normal  0.000000e+000  1.000000e+000  0.000000e+000
    outer loop
      vertex  0.000000e+000  2.602000e+001  1.900000e+001
      vertex  1.500000e+001  2.602000e+001  1.900000e+001
      vertex  0.000000e+000  2.602000e+001  1.200000e+001
    endloop
  endfacet
  facet normal  0.000000e+000  1.000000e+000  0.000000e+000
    outer loop
      vertex  0.000000e+000  2.602000e+001  1.200000e+001
      vertex  1.500000e+001  2.602000e+001  1.900000e+001
      vertex  1.500000e+001  2.602000e+001  1.200000e+001
    endloop
  endfacet
  facet normal  -0.000000e+000  0.000000e+000  1.000000e+000
    outer loop
      vertex  1.500000e+001  3.485000e+001  1.200000e+001
      vertex  0.000000e+000  3.485000e+001  1.200000e+001
      vertex  1.500000e+001  2.602000e+001  1.200000e+001
    endloop
  endfacet
  facet normal  0.000000e+000  0.000000e+000  1.000000e+000
    outer loop
      vertex  1.500000e+001  2.602000e+001  1.200000e+001
      vertex  0.000000e+000  3.485000e+001  1.200000e+001
      vertex  0.000000e+000  2.602000e+001  1.200000e+001
    endloop
  endfacet
  facet normal  0.000000e+000  1.000000e+000  0.000000e+000
    outer loop
      vertex  0.000000e+000  3.485000e+001  1.200000e+001
      vertex  1.500000e+001  3.485000e+001  1.200000e+001
      vertex  0.000000e+000  3.485000e+001  3.000000e+000
    endloop
  endfacet
  facet normal  0.000000e+000  1.000000e+000  0.000000e+000
    outer loop
      vertex  0.000000e+000  3.485000e+001  3.000000e+000
      vertex  1.500000e+001  3.485000e+001  1.200000e+001
      vertex  1.500000e+001  3.485000e+001  3.000000e+000
    endloop
  endfacet
  facet normal  0.000000e+000  0.000000e+000 -1.000000e+000
    outer loop
      vertex  1.500000e+001  3.135000e+001  3.000000e+000
      vertex  0.000000e+000  3.135000e+001  3.000000e+000
      vertex  1.500000e+001  3.485000e+001  3.000000e+000
    endloop
  endfacet
  facet normal  -0.000000e+000  0.000000e+000 -1.000000e+000
    outer loop
      vertex  1.500000e+001  3.485000e+001  3.000000e+000
      vertex  0.000000e+000  3.135000e+001  3.000000e+000
      vertex  0.000000e+000  3.485000e+001  3.000000e+000
    endloop
  endfacet
  facet normal  0.000000e+000 -9.999999e-001  0.000000e+000
    outer loop
      vertex  0.000000e+000  3.135000e+001  3.000000e+000
      vertex  1.500000e+001  3.135000e+001  3.000000e+000
      vertex  0.000000e+000  3.135000e+001  8.500000e+000
    endloop
  endfacet
  facet normal  0.000000e+000 -9.999999e-001  0.000000e+000
    outer loop
      vertex  0.000000e+000  3.135000e+001  8.500000e+000
      vertex  1.500000e+001  3.135000e+001  3.000000e+000
      vertex  1.500000e+001  3.135000e+001  8.500000e+000
    endloop
  endfacet
  facet normal  0.000000e+000  0.000000e+000 -1.000000e+000
    outer loop
      vertex  1.500000e+001  2.715000e+001  8.500000e+000
      vertex  0.000000e+000  2.715000e+001  8.500000e+000
      vertex  1.500000e+001  3.135000e+001  8.500000e+000
    endloop
  endfacet
  facet normal  -0.000000e+000  0.000000e+000 -1.000000e+000
    outer loop
      vertex  1.500000e+001  3.135000e+001  8.500000e+000
      vertex  0.000000e+000  2.715000e+001  8.500000e+000
      vertex  0.000000e+000  3.135000e+001  8.500000e+000
    endloop
  endfacet
  facet normal  0.000000e+000  1.000000e+000  0.000000e+000
    outer loop
      vertex  0.000000e+000  2.715000e+001  8.500000e+000
      vertex  1.500000e+001  2.715000e+001  8.500000e+000
      vertex  0.000000e+000  2.715000e+001 -3.200000e+000
    endloop
  endfacet
  facet normal  0.000000e+000  1.000000e+000  0.000000e+000
    outer loop
      vertex  0.000000e+000  2.715000e+001 -3.200000e+000
      vertex  1.500000e+001  2.715000e+001  8.500000e+000
      vertex  1.500000e+001  2.715000e+001 -3.200000e+000
    endloop
  endfacet
  facet normal  0.000000e+000  0.000000e+000 -1.000000e+000
    outer loop
      vertex  1.500000e+001  0.000000e+000 -3.200000e+000
      vertex  0.000000e+000  0.000000e+000 -3.200000e+000
      vertex  1.500000e+001  2.715000e+001 -3.200000e+000
    endloop
  endfacet
  facet normal  -0.000000e+000  0.000000e+000 -1.000000e+000
    outer loop
      vertex  1.500000e+001  2.715000e+001 -3.200000e+000
      vertex  0.000000e+000  0.000000e+000 -3.200000e+000
      vertex  0.000000e+000  2.715000e+001 -3.200000e+000
    endloop
  endfacet
  facet normal  0.000000e+000  0.000000e+000 -1.000000e+000
    outer loop
      vertex  1.500000e+001 -2.715000e+001 -3.200000e+000
      vertex  0.000000e+000 -2.715000e+001 -3.200000e+000
      vertex  1.500000e+001  0.000000e+000 -3.200000e+000
    endloop
  endfacet
  facet normal  -0.000000e+000  0.000000e+000 -1.000000e+000
    outer loop
      vertex  1.500000e+001  0.000000e+000 -3.200000e+000
      vertex  0.000000e+000 -2.715000e+001 -3.200000e+000
      vertex  0.000000e+000  0.000000e+000 -3.200000e+000
    endloop
  endfacet
  facet normal  0.000000e+000 -1.000000e+000  0.000000e+000
    outer loop
      vertex  0.000000e+000 -2.715000e+001  8.500000e+000
      vertex  0.000000e+000 -2.715000e+001 -3.200000e+000
      vertex  1.500000e+001 -2.715000e+001  8.500000e+000
    endloop
  endfacet
  facet normal  0.000000e+000 -1.000000e+000  -0.000000e+000
    outer loop
      vertex  1.500000e+001 -2.715000e+001  8.500000e+000
      vertex  0.000000e+000 -2.715000e+001 -3.200000e+000
      vertex  1.500000e+001 -2.715000e+001 -3.200000e+000
    endloop
  endfacet
  facet normal  0.000000e+000  0.000000e+000 -1.000000e+000
    outer loop
      vertex  1.500000e+001 -3.135000e+001  8.500000e+000
      vertex  0.000000e+000 -3.135000e+001  8.500000e+000
      vertex  1.500000e+001 -2.715000e+001  8.500000e+000
    endloop
  endfacet
  facet normal  -0.000000e+000  0.000000e+000 -1.000000e+000
    outer loop
      vertex  1.500000e+001 -2.715000e+001  8.500000e+000
      vertex  0.000000e+000 -3.135000e+001  8.500000e+000
      vertex  0.000000e+000 -2.715000e+001  8.500000e+000
    endloop
  endfacet
  facet normal  0.000000e+000  9.999999e-001  0.000000e+000
    outer loop
      vertex  0.000000e+000 -3.135000e+001  3.000000e+000
      vertex  0.000000e+000 -3.135000e+001  8.500000e+000
      vertex  1.500000e+001 -3.135000e+001  3.000000e+000
    endloop
  endfacet
  facet normal  0.000000e+000  9.999999e-001  -0.000000e+000
    outer loop
      vertex  1.500000e+001 -3.135000e+001  3.000000e+000
      vertex  0.000000e+000 -3.135000e+001  8.500000e+000
      vertex  1.500000e+001 -3.135000e+001  8.500000e+000
    endloop
  endfacet
  facet normal  0.000000e+000  0.000000e+000 -1.000000e+000
    outer loop
      vertex  1.500000e+001 -3.485000e+001  3.000000e+000
      vertex  0.000000e+000 -3.485000e+001  3.000000e+000
      vertex  1.500000e+001 -3.135000e+001  3.000000e+000
    endloop
  endfacet
  facet normal  -0.000000e+000  0.000000e+000 -1.000000e+000
    outer loop
      vertex  1.500000e+001 -3.135000e+001  3.000000e+000
      vertex  0.000000e+000 -3.485000e+001  3.000000e+000
      vertex  0.000000e+000 -3.135000e+001  3.000000e+000
    endloop
  endfacet
  facet normal  0.000000e+000 -1.000000e+000  0.000000e+000
    outer loop
      vertex  0.000000e+000 -3.485000e+001  1.200000e+001
      vertex  0.000000e+000 -3.485000e+001  3.000000e+000
      vertex  1.500000e+001 -3.485000e+001  1.200000e+001
    endloop
  endfacet
  facet normal  0.000000e+000 -1.000000e+000  -0.000000e+000
    outer loop
      vertex  1.500000e+001 -3.485000e+001  1.200000e+001
      vertex  0.000000e+000 -3.485000e+001  3.000000e+000
      vertex  1.500000e+001 -3.485000e+001  3.000000e+000
    endloop
  endfacet
  facet normal  -0.000000e+000  0.000000e+000  1.000000e+000
    outer loop
      vertex  1.500000e+001 -2.602000e+001  1.200000e+001
      vertex  0.000000e+000 -2.602000e+001  1.200000e+001
      vertex  1.500000e+001 -3.485000e+001  1.200000e+001
    endloop
  endfacet
  facet normal  0.000000e+000  0.000000e+000  1.000000e+000
    outer loop
      vertex  1.500000e+001 -3.485000e+001  1.200000e+001
      vertex  0.000000e+000 -2.602000e+001  1.200000e+001
      vertex  0.000000e+000 -3.485000e+001  1.200000e+001
    endloop
  endfacet
  facet normal  0.000000e+000 -1.000000e+000  0.000000e+000
    outer loop
      vertex  0.000000e+000 -2.602000e+001  1.900000e+001
      vertex  0.000000e+000 -2.602000e+001  1.200000e+001
      vertex  1.500000e+001 -2.602000e+001  1.900000e+001
    endloop
  endfacet
  facet normal  0.000000e+000 -1.000000e+000  -0.000000e+000
    outer loop
      vertex  1.500000e+001 -2.602000e+001  1.900000e+001
      vertex  0.000000e+000 -2.602000e+001  1.200000e+001
      vertex  1.500000e+001 -2.602000e+001  1.200000e+001
    endloop
  endfacet
  facet normal  0.000000e+000  9.801686e-002 -9.951848e-001
    outer loop
      vertex  0.000000e+000 -2.752000e+001  2.050000e+001
      vertex  1.500000e+001 -2.781264e+001  2.047118e+001
      vertex  0.000000e+000 -2.781264e+001  2.047118e+001
    endloop
  endfacet
  facet normal  0.000000e+000  2.902880e-001 -9.569393e-001
    outer loop
      vertex  0.000000e+000 -2.781264e+001  2.047118e+001
      vertex  1.500000e+001 -2.781264e+001  2.047118e+001
      vertex  1.500000e+001 -2.809402e+001  2.038582e+001
    endloop
  endfacet
  facet normal  0.000000e+000  2.902880e-001 -9.569393e-001
    outer loop
      vertex  0.000000e+000 -2.781264e+001  2.047118e+001
      vertex  1.500000e+001 -2.809402e+001  2.038582e+001
      vertex  0.000000e+000 -2.809402e+001  2.038582e+001
    endloop
  endfacet
  facet normal  0.000000e+000  4.713953e-001 -8.819219e-001
    outer loop
      vertex  0.000000e+000 -2.809402e+001  2.038582e+001
      vertex  1.500000e+001 -2.809402e+001  2.038582e+001
      vertex  1.500000e+001 -2.835336e+001  2.024720e+001
    endloop
  endfacet
  facet normal  0.000000e+000  4.713953e-001 -8.819219e-001
    outer loop
      vertex  0.000000e+000 -2.809402e+001  2.038582e+001
      vertex  1.500000e+001 -2.835336e+001  2.024720e+001
      vertex  0.000000e+000 -2.835336e+001  2.024720e+001
    endloop
  endfacet
  facet normal  0.000000e+000  6.343943e-001 -7.730097e-001
    outer loop
      vertex  0.000000e+000 -2.835336e+001  2.024720e+001
      vertex  1.500000e+001 -2.835336e+001  2.024720e+001
      vertex  1.500000e+001 -2.858066e+001  2.006066e+001
    endloop
  endfacet
  facet normal  0.000000e+000  6.343943e-001 -7.730097e-001
    outer loop
      vertex  0.000000e+000 -2.835336e+001  2.024720e+001
      vertex  1.500000e+001 -2.858066e+001  2.006066e+001
      vertex  0.000000e+000 -2.858066e+001  2.006066e+001
    endloop
  endfacet
  facet normal  0.000000e+000  7.730097e-001 -6.343943e-001
    outer loop
      vertex  0.000000e+000 -2.858066e+001  2.006066e+001
      vertex  1.500000e+001 -2.858066e+001  2.006066e+001
      vertex  1.500000e+001 -2.876720e+001  1.983335e+001
    endloop
  endfacet
  facet normal  0.000000e+000  7.730097e-001 -6.343943e-001
    outer loop
      vertex  0.000000e+000 -2.858066e+001  2.006066e+001
      vertex  1.500000e+001 -2.876720e+001  1.983335e+001
      vertex  0.000000e+000 -2.876720e+001  1.983335e+001
    endloop
  endfacet
  facet normal  0.000000e+000  8.819219e-001 -4.713953e-001
    outer loop
      vertex  0.000000e+000 -2.876720e+001  1.983335e+001
      vertex  1.500000e+001 -2.876720e+001  1.983335e+001
      vertex  1.500000e+001 -2.890582e+001  1.957402e+001
    endloop
  endfacet
  facet normal  0.000000e+000  8.819219e-001 -4.713953e-001
    outer loop
      vertex  0.000000e+000 -2.876720e+001  1.983335e+001
      vertex  1.500000e+001 -2.890582e+001  1.957402e+001
      vertex  0.000000e+000 -2.890582e+001  1.957402e+001
    endloop
  endfacet
  facet normal  0.000000e+000  9.569393e-001 -2.902880e-001
    outer loop
      vertex  0.000000e+000 -2.890582e+001  1.957402e+001
      vertex  1.500000e+001 -2.890582e+001  1.957402e+001
      vertex  1.500000e+001 -2.899118e+001  1.929263e+001
    endloop
  endfacet
  facet normal  0.000000e+000  9.569393e-001 -2.902880e-001
    outer loop
      vertex  0.000000e+000 -2.890582e+001  1.957402e+001
      vertex  1.500000e+001 -2.899118e+001  1.929263e+001
      vertex  0.000000e+000 -2.899118e+001  1.929263e+001
    endloop
  endfacet
  facet normal  0.000000e+000  9.951848e-001 -9.801686e-002
    outer loop
      vertex  0.000000e+000 -2.899118e+001  1.929263e+001
      vertex  1.500000e+001 -2.899118e+001  1.929263e+001
      vertex  1.500000e+001 -2.902000e+001  1.900000e+001
    endloop
  endfacet
  facet normal  0.000000e+000  9.951848e-001 -9.801686e-002
    outer loop
      vertex  0.000000e+000 -2.899118e+001  1.929263e+001
      vertex  1.500000e+001 -2.902000e+001  1.900000e+001
      vertex  0.000000e+000 -2.902000e+001  1.900000e+001
    endloop
  endfacet
  facet normal  0.000000e+000  9.801686e-002 -9.951848e-001
    outer loop
      vertex  1.500000e+001 -2.781264e+001  2.047118e+001
      vertex  0.000000e+000 -2.752000e+001  2.050000e+001
      vertex  1.500000e+001 -2.752000e+001  2.050000e+001
    endloop
  endfacet
  facet normal  -0.000000e+000 -9.801622e-002 -9.951848e-001
    outer loop
      vertex  1.500000e+001 -2.752000e+001  2.050000e+001
      vertex  0.000000e+000 -2.752000e+001  2.050000e+001
      vertex  0.000000e+000 -2.722736e+001  2.047118e+001
    endloop
  endfacet
  facet normal  0.000000e+000 -9.801622e-002 -9.951848e-001
    outer loop
      vertex  1.500000e+001 -2.752000e+001  2.050000e+001
      vertex  0.000000e+000 -2.722736e+001  2.047118e+001
      vertex  1.500000e+001 -2.722736e+001  2.047118e+001
    endloop
  endfacet
  facet normal  -0.000000e+000 -2.902880e-001 -9.569393e-001
    outer loop
      vertex  1.500000e+001 -2.722736e+001  2.047118e+001
      vertex  0.000000e+000 -2.722736e+001  2.047118e+001
      vertex  0.000000e+000 -2.694597e+001  2.038582e+001
    endloop
  endfacet
  facet normal  0.000000e+000 -2.902880e-001 -9.569393e-001
    outer loop
      vertex  1.500000e+001 -2.722736e+001  2.047118e+001
      vertex  0.000000e+000 -2.694597e+001  2.038582e+001
      vertex  1.500000e+001 -2.694597e+001  2.038582e+001
    endloop
  endfacet
  facet normal  -0.000000e+000 -4.713981e-001 -8.819206e-001
    outer loop
      vertex  1.500000e+001 -2.694597e+001  2.038582e+001
      vertex  0.000000e+000 -2.694597e+001  2.038582e+001
      vertex  0.000000e+000 -2.668665e+001  2.024720e+001
    endloop
  endfacet
  facet normal  0.000000e+000 -4.713981e-001 -8.819206e-001
    outer loop
      vertex  1.500000e+001 -2.694597e+001  2.038582e+001
      vertex  0.000000e+000 -2.668665e+001  2.024720e+001
      vertex  1.500000e+001 -2.668665e+001  2.024720e+001
    endloop
  endfacet
  facet normal  -0.000000e+000 -6.343911e-001 -7.730123e-001
    outer loop
      vertex  1.500000e+001 -2.668665e+001  2.024720e+001
      vertex  0.000000e+000 -2.668665e+001  2.024720e+001
      vertex  0.000000e+000 -2.645934e+001  2.006066e+001
    endloop
  endfacet
  facet normal  0.000000e+000 -6.343911e-001 -7.730123e-001
    outer loop
      vertex  1.500000e+001 -2.668665e+001  2.024720e+001
      vertex  0.000000e+000 -2.645934e+001  2.006066e+001
      vertex  1.500000e+001 -2.645934e+001  2.006066e+001
    endloop
  endfacet
  facet normal  -0.000000e+000 -7.730097e-001 -6.343943e-001
    outer loop
      vertex  1.500000e+001 -2.645934e+001  2.006066e+001
      vertex  0.000000e+000 -2.645934e+001  2.006066e+001
      vertex  0.000000e+000 -2.627279e+001  1.983335e+001
    endloop
  endfacet
  facet normal  0.000000e+000 -7.730097e-001 -6.343943e-001
    outer loop
      vertex  1.500000e+001 -2.645934e+001  2.006066e+001
      vertex  0.000000e+000 -2.627279e+001  1.983335e+001
      vertex  1.500000e+001 -2.627279e+001  1.983335e+001
    endloop
  endfacet
  facet normal  -0.000000e+000 -8.819219e-001 -4.713953e-001
    outer loop
      vertex  1.500000e+001 -2.627279e+001  1.983335e+001
      vertex  0.000000e+000 -2.627279e+001  1.983335e+001
      vertex  0.000000e+000 -2.613418e+001  1.957402e+001
    endloop
  endfacet
  facet normal  0.000000e+000 -8.819219e-001 -4.713953e-001
    outer loop
      vertex  1.500000e+001 -2.627279e+001  1.983335e+001
      vertex  0.000000e+000 -2.613418e+001  1.957402e+001
      vertex  1.500000e+001 -2.613418e+001  1.957402e+001
    endloop
  endfacet
  facet normal  -0.000000e+000 -9.569411e-001 -2.902821e-001
    outer loop
      vertex  1.500000e+001 -2.613418e+001  1.957402e+001
      vertex  0.000000e+000 -2.613418e+001  1.957402e+001
      vertex  0.000000e+000 -2.604882e+001  1.929263e+001
    endloop
  endfacet
  facet normal  0.000000e+000 -9.569411e-001 -2.902821e-001
    outer loop
      vertex  1.500000e+001 -2.613418e+001  1.957402e+001
      vertex  0.000000e+000 -2.604882e+001  1.929263e+001
      vertex  1.500000e+001 -2.604882e+001  1.929263e+001
    endloop
  endfacet
  facet normal  -0.000000e+000 -9.951848e-001 -9.801686e-002
    outer loop
      vertex  1.500000e+001 -2.604882e+001  1.929263e+001
      vertex  0.000000e+000 -2.604882e+001  1.929263e+001
      vertex  0.000000e+000 -2.602000e+001  1.900000e+001
    endloop
  endfacet
  facet normal  0.000000e+000 -9.951848e-001 -9.801686e-002
    outer loop
      vertex  1.500000e+001 -2.604882e+001  1.929263e+001
      vertex  0.000000e+000 -2.602000e+001  1.900000e+001
      vertex  1.500000e+001 -2.602000e+001  1.900000e+001
    endloop
  endfacet
  facet normal  0.000000e+000  0.000000e+000 -1.000000e+000
    outer loop
      vertex  1.500000e+001 -3.102000e+001  1.900000e+001
      vertex  0.000000e+000 -3.102000e+001  1.900000e+001
      vertex  1.500000e+001 -2.902000e+001  1.900000e+001
    endloop
  endfacet
  facet normal  -0.000000e+000  0.000000e+000 -1.000000e+000
    outer loop
      vertex  1.500000e+001 -2.902000e+001  1.900000e+001
      vertex  0.000000e+000 -3.102000e+001  1.900000e+001
      vertex  0.000000e+000 -2.902000e+001  1.900000e+001
    endloop
  endfacet
  facet normal  0.000000e+000 -1.000000e+000  0.000000e+000
    outer loop
      vertex  0.000000e+000 -3.102000e+001  2.100000e+001
      vertex  0.000000e+000 -3.102000e+001  1.900000e+001
      vertex  1.500000e+001 -3.102000e+001  2.100000e+001
    endloop
  endfacet
  facet normal  0.000000e+000 -1.000000e+000  -0.000000e+000
    outer loop
      vertex  1.500000e+001 -3.102000e+001  2.100000e+001
      vertex  0.000000e+000 -3.102000e+001  1.900000e+001
      vertex  1.500000e+001 -3.102000e+001  1.900000e+001
    endloop
  endfacet
  facet normal  0.000000e+000 -7.071068e-001  7.071068e-001
    outer loop
      vertex  0.000000e+000 -3.102000e+001  2.100000e+001
      vertex  1.500000e+001 -3.102000e+001  2.100000e+001
      vertex  0.000000e+000 -2.702000e+001  2.500000e+001
    endloop
  endfacet
  facet normal  0.000000e+000 -7.071068e-001  7.071068e-001
    outer loop
      vertex  0.000000e+000 -2.702000e+001  2.500000e+001
      vertex  1.500000e+001 -3.102000e+001  2.100000e+001
      vertex  1.500000e+001 -2.702000e+001  2.500000e+001
    endloop
  endfacet
  facet normal  -0.000000e+000  0.000000e+000  1.000000e+000
    outer loop
      vertex  1.500000e+001 -2.250000e+001  2.500000e+001
      vertex  0.000000e+000 -2.250000e+001  2.500000e+001
      vertex  1.500000e+001 -2.702000e+001  2.500000e+001
    endloop
  endfacet
  facet normal  0.000000e+000  0.000000e+000  1.000000e+000
    outer loop
      vertex  1.500000e+001 -2.702000e+001  2.500000e+001
      vertex  0.000000e+000 -2.250000e+001  2.500000e+001
      vertex  0.000000e+000 -2.702000e+001  2.500000e+001
    endloop
  endfacet
  facet normal  0.000000e+000  1.000000e+000  0.000000e+000
    outer loop
      vertex  1.500000e+001 -2.250000e+001  0.000000e+000
      vertex  0.000000e+000 -2.250000e+001  0.000000e+000
      vertex  1.500000e+001 -2.250000e+001  2.500000e+001
    endloop
  endfacet
  facet normal  0.000000e+000  1.000000e+000  0.000000e+000
    outer loop
      vertex  1.500000e+001 -2.250000e+001  2.500000e+001
      vertex  0.000000e+000 -2.250000e+001  0.000000e+000
      vertex  0.000000e+000 -2.250000e+001  2.500000e+001
    endloop
  endfacet
  facet normal  -0.000000e+000  0.000000e+000  1.000000e+000
    outer loop
      vertex  1.500000e+001  0.000000e+000  0.000000e+000
      vertex  0.000000e+000  0.000000e+000  0.000000e+000
      vertex  1.500000e+001 -2.250000e+001  0.000000e+000
    endloop
  endfacet
  facet normal  0.000000e+000  0.000000e+000  1.000000e+000
    outer loop
      vertex  1.500000e+001 -2.250000e+001  0.000000e+000
      vertex  0.000000e+000  0.000000e+000  0.000000e+000
      vertex  0.000000e+000 -2.250000e+001  0.000000e+000
    endloop
  endfacet
endsolid CATIA STL
